<?xml version="1.0" encoding="UTF-8" standalone="no"?>
<svg
   width="80"
   height="80"
   viewBox="0 0 80 80"
   version="1.1"
   id="svg1"
   sodipodi:docname="mit.svg"
   xml:space="preserve"
   inkscape:version="1.4.2 (f4327f4, 2025-05-13)"
   xmlns:inkscape="http://www.inkscape.org/namespaces/inkscape"
   xmlns:sodipodi="http://sodipodi.sourceforge.net/DTD/sodipodi-0.dtd"
   xmlns="http://www.w3.org/2000/svg"
   xmlns:svg="http://www.w3.org/2000/svg"><defs
     id="defs1" /><sodipodi:namedview
     id="namedview1"
     pagecolor="#ffffff"
     bordercolor="#000000"
     borderopacity="0.25"
     inkscape:showpageshadow="2"
     inkscape:pageopacity="0.0"
     inkscape:pagecheckerboard="0"
     inkscape:deskcolor="#d1d1d1"
     showgrid="false"
     inkscape:zoom="5.6568543"
     inkscape:cx="45.254834"
     inkscape:cy="64.611882"
     inkscape:window-width="1920"
     inkscape:window-height="1009"
     inkscape:window-x="-8"
     inkscape:window-y="-8"
     inkscape:window-maximized="1"
     inkscape:current-layer="svg1" /><rect
     width="80"
     height="80"
     rx="18"
     fill="#EBF2FF"
     id="rect1"
     style="fill:none;fill-opacity:1" /><path
     id="path3"
     style="vector-effect:non-scaling-stroke;fill:#006cb7;fill-opacity:1;stroke:none;stroke-width:0.336274;stroke-opacity:1;-inkscape-stroke:hairline"
     d="M 37.099634,4.9922118 C 38.311482,6.811979 38.770359,8.314703 38.476258,9.500387 36.803435,18.471456 28.372046,24.379745 28.356511,30.885313 28.624161,36.484492 33.44516,38.78642 38.192526,41.14167 35.730983,38.647638 34.497984,36.153606 34.493511,33.659573 34.379992,28.508969 42.802634,20.714559 43.0685,16.42553 42.911778,13.486289 40.476317,9.199621 37.099634,4.9922118 Z m 7.90244,12.1899352 c 3.487783,6.138697 -11.294826,13.970248 -4.96004,20.008303 -1.882319,-7.538745 11.093131,-9.186104 4.96004,-20.008303 z m 4.035289,4.119355 c 3.98308,6.847212 -7.483248,11.614972 -6.389207,18.747277 2.929721,-5.865538 13.726839,-7.959035 6.389207,-18.747277 z M 7.7597285,44 17.343537,54.256357 h 11.18111 V 65.605605 H 40.126101 V 76.114168 L 72.240272,44 Z" /></svg>
