<?xml version="1.0" encoding="UTF-8" standalone="no"?>
<svg
   width="80"
   height="80"
   viewBox="0 0 80 80"
   version="1.1"
   id="svg1"
   sodipodi:docname="toutche.svg"
   xml:space="preserve"
   inkscape:version="1.4.2 (f4327f4, 2025-05-13)"
   xmlns:inkscape="http://www.inkscape.org/namespaces/inkscape"
   xmlns:sodipodi="http://sodipodi.sourceforge.net/DTD/sodipodi-0.dtd"
   xmlns="http://www.w3.org/2000/svg"
   xmlns:svg="http://www.w3.org/2000/svg"><defs
     id="defs1" /><sodipodi:namedview
     id="namedview1"
     pagecolor="#ffffff"
     bordercolor="#000000"
     borderopacity="0.25"
     inkscape:showpageshadow="2"
     inkscape:pageopacity="0.0"
     inkscape:pagecheckerboard="0"
     inkscape:deskcolor="#d1d1d1"
     inkscape:zoom="5.04375"
     inkscape:cx="-33.011152"
     inkscape:cy="22.106568"
     inkscape:window-width="1920"
     inkscape:window-height="1009"
     inkscape:window-x="-8"
     inkscape:window-y="-8"
     inkscape:window-maximized="1"
     inkscape:current-layer="svg1" /><rect
     width="80"
     height="80"
     rx="18"
     fill="#FDECEA"
     id="rect1"
     style="fill:#ffffff;fill-opacity:1" /><g
     id="g21"
     transform="matrix(0.49666163,0,0,0.49666163,80.360884,16.858987)"><path
       id="path1"
       style="vector-effect:non-scaling-stroke;fill:#333e48;fill-opacity:1;stroke:none;stroke-width:1;stroke-dasharray:none;stroke-opacity:1;-inkscape-stroke:hairline"
       d="m -142.36401,-11.103516 c -2.9356,-5.58e-4 -5.29335,3.5352441 -3.65234,6.8886721 l 8.79688,15.3183599 h 112.277345 l 8.4375,-14.6582039 c 1.54901,-3.672336 -0.55304,-7.3439631 -2.88672,-7.2988281 z m 73.660165,6.7128911 h 7.67578 v 2.804687 h -5.74804 c -0.34951,0 -0.63086,0.28136 -0.63086,0.63085998 V 1.3574221 c 0,0.34951 0.28135,0.630859 0.63086,0.630859 h 5.74804 V 4.792969 h -7.67578 c -0.60192,0 -1.08594,-0.485971 -1.08594,-1.087891 v -7.0097659 c 0,-0.60192 0.48402,-1.085937 1.08594,-1.085937 z m -65.085945,0.210937 h 9.49805 v 2.523438 h -9.49805 z m 17.13868,0 h 7.29101 c 0.52426,0 0.94531,0.421055 0.94531,0.945313 V 3.634765 c 0,0.524258 -0.42105,0.947266 -0.94531,0.947266 h -7.29101 c -0.52426,0 -0.94532,-0.423008 -0.94532,-0.947266 v -6.8691399 c 0,-0.524258 0.42106,-0.945313 0.94532,-0.945313 z m 14.75586,0 h 2.804685 v 5.748047 c 0,0.349505 0.28136,0.63086 0.63086,0.63086 h 2.3125 c 0.34951,0 0.63086,-0.281355 0.63086,-0.63086 v -5.748047 h 2.80469 V 3.496094 c 0,0.601925 -0.48597,1.085937 -1.08789,1.085937 h -7.009775 c -0.60192,0 -1.08593,-0.484012 -1.08593,-1.085937 z m 15.527345,0 h 9.49805 v 2.523438 h -9.49805 z m 32.0332,0 h 2.91016 v 2.94336 h 3.5039 v -2.94336 h 2.91016 V 4.617187 h -2.91016 V 1.6738281 h -3.5039 V 4.617187 h -2.91016 z m 15.70313,0 h 9.39258 v 2.021485 h -9.39258 z m -76.181645,2.207032 c -0.26004,0 -0.46875,0.210671 -0.46875,0.470703 v 3.40625 c 0,0.260032 0.20871,0.4687499 0.46875,0.4687499 h 3.61523 c 0.26003,0 0.4707,-0.2087179 0.4707,-0.4687499 v -3.40625 c 0,-0.260032 -0.21067,-0.470703 -0.4707,-0.470703 z m -15.96289,1.05273398 h 3.54101 V 4.582031 h -3.54101 z m 47.421875,0 h 3.53906 V 4.582031 h -3.53906 z m 44.72266,0.126953 h 9.39258 V 1.2285151 h -9.39258 z m 0,3.38867192 h 9.39258 v 2.021484 h -9.39258 z"
       sodipodi:nodetypes="cccccccsccssssccsssscccccsssssssssccssssccssssccccccccccccccccccccccccssssssssscccccccccccccccccccc" /><path
       id="path21"
       style="vector-effect:non-scaling-stroke;fill:#ef3f2a;fill-opacity:1;stroke:none;stroke-width:1;stroke-dasharray:none;stroke-opacity:1;-inkscape-stroke:hairline"
       d="m -135.65111,13.833984 5.91796,10.306641 h 86.107435 l -3.9668,6.796875 h -69.824225 l 1.87305,3.261719 h 66.048835 l -3.9668,6.798828 h -18.0332 l -24.47266,41.9375 10.22461,17.802743 c 1.05596,2.33552 5.3946,6.62215 9.16016,0.0801 l 50.06835,-86.984376 z m 15.5996,27.164063 14.41016,25.089844 14.640635,-25.089844 z m 36.919935,0 -18.607435,31.886719 1.869155,3.253906 20.5039,-35.140625 z"
       sodipodi:nodetypes="ccccccccccccccccccccccc" /></g></svg>
