<?xml version="1.0" encoding="UTF-8" standalone="no"?>
<svg
   width="80"
   height="80"
   viewBox="0 0 80 80"
   version="1.1"
   id="svg1"
   sodipodi:docname="utthunga.svg"
   xml:space="preserve"
   inkscape:version="1.4.2 (f4327f4, 2025-05-13)"
   xmlns:inkscape="http://www.inkscape.org/namespaces/inkscape"
   xmlns:sodipodi="http://sodipodi.sourceforge.net/DTD/sodipodi-0.dtd"
   xmlns="http://www.w3.org/2000/svg"
   xmlns:svg="http://www.w3.org/2000/svg"><defs
     id="defs1" /><sodipodi:namedview
     id="namedview1"
     pagecolor="#ffffff"
     bordercolor="#000000"
     borderopacity="0.25"
     inkscape:showpageshadow="2"
     inkscape:pageopacity="0.0"
     inkscape:pagecheckerboard="0"
     inkscape:deskcolor="#d1d1d1"
     showgrid="false"
     inkscape:zoom="5.6568543"
     inkscape:cx="-4.065864"
     inkscape:cy="29.43332"
     inkscape:window-width="1920"
     inkscape:window-height="1009"
     inkscape:window-x="-8"
     inkscape:window-y="-8"
     inkscape:window-maximized="1"
     inkscape:current-layer="svg1" /><rect
     width="80"
     height="80"
     rx="18"
     fill="#EBF2FF"
     id="rect1"
     style="fill:none;fill-opacity:1" /><g
     id="g2"
     transform="matrix(1.1431023,0,0,1.1431023,-6.1124197,-11.592291)"><path
       style="fill:#000000"
       d="m 55.630265,74.207262 0.02669,-0.561882 2.00955,-0.04466 c 2.208028,-0.04907 2.367311,-0.08736 2.588964,-0.622482 0.233591,-0.563939 0.201668,-0.577724 -1.473548,-0.636328 -1.629776,-0.05701 -2.020365,-0.144383 -2.590907,-0.579557 -1.385686,-1.056914 -1.762246,-3.570336 -0.777415,-5.189008 0.436433,-0.717324 0.960937,-1.141845 1.688369,-1.366526 0.520314,-0.160709 0.829137,-0.180179 2.857819,-0.180179 h 2.274466 l -0.02871,4.086085 -0.02871,4.086085 -0.243016,0.494356 c -0.133659,0.271896 -0.36734,0.613519 -0.519291,0.759163 l -0.276274,0.264808 -2.767332,0.026 -2.767331,0.026 z m 4.670979,-5.474116 v -2.14352 l -1.032099,-0.02501 c -1.13264,-0.02745 -1.416688,0.04574 -1.936914,0.499065 -0.517219,0.450706 -0.70942,1.613333 -0.422874,2.557966 0.295073,0.972743 0.982486,1.298259 2.677381,1.267844 l 0.714506,-0.01282 z M 11.40168,72.223967 C 10.88456,72.080132 10.6143,71.938408 10.3019,71.647245 9.7097297,71.095329 9.6159297,70.523773 9.6159297,67.467445 v -2.447051 l 0.9154603,0.02545 0.91546,0.02545 0.0447,2.619735 c 0.0497,2.916883 0.004,2.720102 0.69725,3.019856 0.30868,0.133526 1.96052,0.155568 2.16548,0.0289 0.0755,-0.04664 0.10083,-0.803251 0.0931,-2.776986 -0.006,-1.492082 0.0233,-2.764711 0.0649,-2.828066 0.0549,-0.08378 0.30483,-0.108134 0.91654,-0.08931 l 0.84101,0.02588 v 3.61719 3.61719 l -2.23283,0.01511 c -1.55829,0.01054 -2.35441,-0.01871 -2.63526,-0.09682 z m 8.711223,-0.01603 C 19.650331,72.038597 19.284101,71.68787 19.049201,71.189261 18.877068,70.823884 18.855798,70.588452 18.8152,68.599174 l -0.04466,-2.188176 -0.62519,-0.04466 -0.62519,-0.04466 v -0.625193 -0.625193 l 0.44656,-0.02334 c 0.907711,-0.04744 0.840408,0.06332 0.868424,-1.429107 l 0.02471,-1.316268 h 0.893133 0.893133 l 0.02496,1.244401 c 0.01426,0.710977 0.06576,1.293564 0.120141,1.359093 0.0639,0.077 0.407964,0.122996 1.046805,0.139956 l 0.951618,0.02526 v 0.625193 0.625193 l -1.003805,0.02524 c -0.969182,0.02437 -1.005619,0.03247 -1.056397,0.234786 -0.02893,0.115248 -0.03941,0.98809 -0.0233,1.939649 0.03245,1.916731 0.05982,2.019289 0.609002,2.282006 0.172384,0.08246 0.574357,0.172883 0.893273,0.200929 l 0.579848,0.05099 0.0047,0.53588 c 0.0026,0.294734 -0.01147,0.586119 -0.03119,0.647522 -0.05315,0.165425 -2.180422,0.140725 -2.648842,-0.03076 z m 5.847364,-0.0047 c -0.456911,-0.157529 -0.755669,-0.402192 -0.965521,-0.790696 -0.297922,-0.551553 -0.358618,-1.055452 -0.358957,-2.980089 -1.85e-4,-1.04958 -0.03383,-1.941708 -0.07476,-1.982506 -0.04094,-0.0408 -0.33567,-0.08635 -0.654965,-0.101221 l -0.580537,-0.02704 v -0.625193 -0.625193 l 0.580537,-0.02705 c 0.319295,-0.01487 0.618681,-0.06507 0.665301,-0.111558 0.04748,-0.04734 0.07389,-0.597396 0.06005,-1.250496 -0.01713,-0.808398 0.0082,-1.205589 0.08247,-1.295127 0.135416,-0.163167 1.647117,-0.186244 1.745751,-0.02665 0.03484,0.05637 0.05478,0.621929 0.04431,1.256795 -0.01293,0.784279 0.0149,1.195191 0.08683,1.281862 0.07921,0.09545 0.337698,0.127563 1.026703,0.127563 1.086378,0 1.086976,8.1e-4 0.940582,1.272715 -0.0042,0.03684 -0.421677,0.06699 -0.927637,0.06699 -0.596414,0 -0.957618,0.03769 -1.027103,0.107176 -0.07581,0.07581 -0.106602,0.592112 -0.105215,1.763938 0.0028,2.335446 0.147223,2.602401 1.488509,2.750745 l 0.606616,0.06709 0.0049,0.53588 c 0.0027,0.294734 -0.01127,0.586119 -0.031,0.647522 -0.05488,0.170799 -2.088848,0.143138 -2.606845,-0.03545 z m 3.970767,0.03545 c -0.0235,-0.0614 -0.03229,-2.322147 -0.01953,-5.023875 l 0.0232,-4.912234 h 0.848477 0.848477 l 0.02496,1.244401 c 0.01372,0.68442 0.06604,1.29391 0.116265,1.354422 0.06285,0.07572 0.542299,0.121989 1.538028,0.148412 0.795695,0.02111 1.602688,0.08816 1.793318,0.148997 0.444643,0.141896 1.167772,0.863054 1.315733,1.312149 0.07948,0.241222 0.123916,1.182557 0.146174,3.096162 l 0.03198,2.749562 -0.920243,-0.02551 -0.920244,-0.0255 -0.04466,-2.560733 c -0.04422,-2.535635 -0.04671,-2.562919 -0.254434,-2.78386 -0.339468,-0.361073 -0.612374,-0.424262 -1.714112,-0.396889 l -1.023451,0.02543 -0.02357,2.880355 -0.02357,2.880356 h -0.850043 c -0.597704,0 -0.862726,-0.03314 -0.892769,-0.111642 z m 10.140232,-0.0155 c -0.816768,-0.225623 -1.158723,-0.50147 -1.503163,-1.212564 L 38.330164,70.5194 38.302014,67.773015 38.273864,65.02663 h 0.943607 0.943607 l 9.83e-4,2.344475 c 0.0012,2.936415 0.0044,2.957623 0.487998,3.241016 0.332466,0.194838 0.479209,0.219876 1.288676,0.219876 0.502418,0 0.991226,-0.04161 1.086242,-0.09246 0.165184,-0.0884 0.172755,-0.215737 0.172755,-2.905808 v -2.813352 l 0.899404,0.02545 0.899405,0.02545 -0.0028,3.553096 c -0.0015,1.954203 -0.02682,3.591986 -0.0562,3.639518 -0.08157,0.131982 -4.371048,0.09609 -4.866298,-0.04071 z m 6.847864,0.06759 c -0.03275,-0.03275 -0.05954,-1.682908 -0.05954,-3.667021 v -3.607479 l 2.478445,0.0275 c 2.462734,0.02733 2.48162,0.02899 2.979222,0.262324 0.539039,0.252764 0.85656,0.60556 1.0909,1.212094 0.121196,0.313686 0.145771,0.796607 0.149988,2.94734 0.0028,1.414702 0.0039,2.642519 0.0025,2.728483 -0.0022,0.136981 -0.100991,0.156299 -0.799064,0.156299 -0.438083,0 -0.860089,-0.0244 -0.93779,-0.05421 -0.12404,-0.0476 -0.141275,-0.351045 -0.141275,-2.487445 0,-1.416995 -0.03787,-2.54138 -0.09068,-2.692173 -0.159147,-0.45446 -0.504303,-0.571536 -1.684964,-0.571536 -0.694984,0 -1.082671,0.03601 -1.153836,0.107176 -0.07879,0.07879 -0.107176,0.847484 -0.107176,2.902683 v 2.795508 h -0.833591 c -0.458475,0 -0.860385,-0.02679 -0.893133,-0.05954 z m 18.1598,-0.02391 c -0.60509,-0.184059 -1.249809,-0.695717 -1.249809,-0.991864 0,-0.07664 -0.0476,-0.186942 -0.105766,-0.245114 -0.159463,-0.159463 -0.124907,-1.424534 0.04984,-1.824543 0.07967,-0.18238 0.264597,-0.467973 0.410943,-0.634651 0.429808,-0.489525 0.953237,-0.602751 3.10403,-0.671449 l 1.855099,-0.05925 -0.01055,-0.338954 c -0.0107,-0.344009 -0.241813,-0.6814 -0.614649,-0.897305 -0.11481,-0.06649 -0.92847,-0.119395 -2.27749,-0.148098 l -2.098863,-0.04466 v -0.66985 -0.66985 l 2.361063,-0.02384 c 2.646188,-0.02672 3.010216,0.0266 3.674238,0.538165 0.20766,0.159984 0.490012,0.504801 0.631127,0.770752 l 0.255355,0.481254 v 2.756355 2.756355 l -2.880355,-0.0077 C 66.598948,72.33842 65.20205,72.3043 65.078927,72.26685 Z m 4.000984,-1.391974 c 0.08457,-0.02941 0.108361,-0.236743 0.08931,-0.77833 L 69.143264,69.35832 67.71425,69.33103 c -1.192137,-0.02277 -1.475387,-0.0029 -1.708776,0.120048 -0.627553,0.330499 -0.64134,1.151653 -0.02358,1.404551 0.25629,0.10492 2.806105,0.120773 3.09802,0.01926 z"
       id="path2"
       sodipodi:nodetypes="ccssssssscccssccccccssssccssscccccsccscccssscsscccccsscccssscccsssssccsccssssscccssscsssscsscscsssssscccsssssscccssscccssscsccccccssssccccsccsscsssccssssssscssscssssscssscccsssccccccsscscsss" /><path
       id="path1"
       style="fill:#17488b;fill-opacity:1;stroke-width:1.01727"
       d="M 40.384419,15.498008 9.61593,60.251992 H 71.063498 Z M 28.272531,35.199695 40.374485,52.133688 52.42478,35.199695 V 49.115651 C 52.36582,58.050504 44.39235,59.292579 40.374485,59.349958 36.288906,59.408298 28.114132,57.671699 28.121529,49.115651 Z" /></g></svg>
